# File created by Blade
# Date/Time:  Thu Jan 22 16:10:14 2015
# Frame Rate: 120.000 fps
#------------------------------------------------------
:FULLY-SPECIFIED
:DEGREES
1844
root 13.015931 24.482944 -2.058997 41.181485 22.613523 -12.453564
RightUpLeg -32.658185 -45.281229 -10.599960
RightLeg -6.424831 -0.000000 0.000000
RightFoot 5.558786 -25.884233 44.949562
RightToeBase 14.852209 -0.000000 -0.000000
LeftUpLeg -110.508281 11.258415 -2.983787
LeftLeg 104.221138 -0.000000 -0.000000
LeftFoot -44.651087 11.332607 -19.975151
LeftToeBase 6.975483 -0.000000 -0.000000
Spine 46.301949 -4.099736 -42.477316
RightShoulder 1.492519 -13.112861 -21.385918
RightArm 17.549934 -17.838330 64.649162
RightForeArm 18.405270 -0.000000 59.728379
RightHand 12.648772 0.000000 -27.799193
RightHandThumb1 -24.326973 -0.000000 -32.862282
LeftShoulder -1.001183 18.672453 21.649873
LeftArm 62.582536 -42.251143 -76.393115
LeftForeArm 20.673184 0.000000 22.628777
LeftHand -24.332097 -0.000000 85.251109
LeftHandThumb1 -26.253704 0.000000 33.147579
Head -37.913598 -13.142457 20.089555
1845
root 13.026587 24.467061 -2.067236 41.094955 22.640786 -12.563959
RightUpLeg -32.647858 -45.272050 -10.530538
RightLeg -6.393382 -0.000000 0.000000
RightFoot 5.610311 -25.849914 44.903937
RightToeBase 14.788616 -0.000000 -0.000000
LeftUpLeg -110.541812 11.260705 -2.916186
LeftLeg 104.313526 -0.000000 -0.000000
LeftFoot -44.680526 11.418568 -19.965366
LeftToeBase 6.979465 -0.000000 -0.000000
Spine 46.237726 -4.164055 -42.591696
RightShoulder 1.417878 -13.181190 -21.508674
RightArm 17.428795 -17.608511 64.815964
RightForeArm 18.516696 0.000000 59.745066
RightHand 12.672936 -0.000000 -27.877663
RightHandThumb1 -24.326973 -0.000000 -32.862282
LeftShoulder -1.164951 18.782291 21.512103
LeftArm 62.135516 -42.176244 -75.783811
LeftForeArm 20.606067 -0.000000 22.856840
LeftHand -24.531500 0.000000 85.526039
LeftHandThumb1 -26.253704 0.000000 33.147579
Head -37.807908 -13.431624 19.776025
1846
root 13.038101 24.448925 -2.076085 40.978473 22.647657 -12.672978
RightUpLeg -32.611946 -45.267402 -10.482496
RightLeg -6.366109 -0.000000 0.000000
RightFoot 5.672350 -25.787493 44.850618
RightToeBase 14.786723 -0.000000 -0.000000
LeftUpLeg -110.545694 11.269686 -2.858116
LeftLeg 104.422522 -0.000000 -0.000000
LeftFoot -44.666543 11.593357 -19.893718
LeftToeBase 6.842504 -0.000000 -0.000000
Spine 46.192110 -4.197689 -42.694345
RightShoulder 1.325343 -13.258340 -21.606333
RightArm 17.293774 -17.358137 64.944130
RightForeArm 18.636332 -0.000000 59.806454
RightHand 12.608588 -0.000000 -28.017931
RightHandThumb1 -24.326973 -0.000000 -32.862282
LeftShoulder -1.319993 18.774451 21.305704
LeftArm 61.546685 -42.092626 -74.994894
LeftForeArm 20.541046 -0.000000 23.084897
LeftHand -24.686938 -0.000000 85.869651
LeftHandThumb1 -26.253704 0.000000 33.147579
Head -37.728902 -13.528172 19.380473
1847
root 13.044373 24.434543 -2.083654 40.879161 22.651142 -12.790602
RightUpLeg -32.597991 -45.247818 -10.399303
RightLeg -6.362664 -0.000000 0.000000
RightFoot 5.728658 -25.740013 44.764005
RightToeBase 14.762973 -0.000000 -0.000000
LeftUpLeg -110.581905 11.302745 -2.808199
LeftLeg 104.512422 -0.000000 -0.000000
LeftFoot -44.695616 11.665239 -19.935315
LeftToeBase 6.920196 -0.000000 -0.000000
Spine 46.114033 -4.231746 -42.793056
RightShoulder 1.230364 -13.229671 -21.719290
RightArm 17.028545 -17.115750 65.163536
RightForeArm 18.715728 -0.000000 59.849293
RightHand 12.729600 -0.000000 -28.028434
RightHandThumb1 -24.326973 -0.000000 -32.862282
LeftShoulder -1.440952 18.771539 21.059426
LeftArm 60.989747 -42.081256 -74.294620
LeftForeArm 20.643538 0.000000 23.465451
LeftHand -24.803766 -0.000000 86.097879
LeftHandThumb1 -26.253704 0.000000 33.147579
Head -37.670378 -13.677996 19.083369
1848
root 13.051936 24.421007 -2.090565 40.758008 22.635097 -12.871087
RightUpLeg -32.514535 -45.221374 -10.402990
RightLeg -6.377976 -0.000000 0.000000
RightFoot 5.774472 -25.725883 44.708583
RightToeBase 14.778888 -0.000000 -0.000000
LeftUpLeg -110.565107 11.328804 -2.785947
LeftLeg 104.604347 -0.000000 -0.000000
LeftFoot -44.698257 11.737022 -19.940012
LeftToeBase 6.935228 -0.000000 -0.000000
Spine 46.067723 -4.233574 -42.963058
RightShoulder 1.155020 -13.351004 -21.794568
RightArm 16.895201 -16.852007 65.270347
RightForeArm 18.743858 -0.000000 59.968012
RightHand 12.754993 -0.000000 -28.324580
RightHandThumb1 -24.326973 -0.000000 -32.862282
LeftShoulder -1.672387 18.827647 20.863675
LeftArm 60.760924 -41.977819 -73.697714
LeftForeArm 20.635292 -0.000000 23.438456
LeftHand -24.987062 0.000000 86.521646
LeftHandThumb1 -26.253704 0.000000 33.147579
Head -37.554108 -13.796404 18.835615
1849
root 13.060176 24.409265 -2.096546 40.653843 22.641184 -12.916389
RightUpLeg -32.419018 -45.238388 -10.414757
RightLeg -6.406089 -0.000000 0.000000
RightFoot 5.844165 -25.706862 44.600967
RightToeBase 14.795082 -0.000000 -0.000000
LeftUpLeg -110.544027 11.312482 -2.771501
LeftLeg 104.674124 -0.000000 -0.000000
LeftFoot -44.676315 11.821628 -19.939223
LeftToeBase 6.903484 -0.000000 -0.000000
Spine 46.042410 -4.218322 -43.121445
RightShoulder 1.029534 -13.464959 -21.813839
RightArm 16.724352 -16.581916 65.362521
RightForeArm 18.791401 -0.000000 60.071971
RightHand 12.841628 -0.000000 -28.492409
RightHandThumb1 -24.326973 -0.000000 -32.862282
LeftShoulder -1.846559 18.816484 20.705837
LeftArm 60.553613 -41.896556 -73.240799
LeftForeArm 20.717636 -0.000000 23.508961
LeftHand -24.987383 -0.000000 86.989254
LeftHandThumb1 -26.253704 0.000000 33.147579
Head -37.499457 -14.009251 18.741758
